<svg width="1341" height="74" viewBox="0 0 1341 74" fill="none" xmlns="http://www.w3.org/2000/svg">
<g clip-path="url(#clip0_201_2)">
<mask id="mask0_201_2" style="mask-type:luminance" maskUnits="userSpaceOnUse" x="-44" y="0" width="1498" height="74">
<path d="M1454 0H-44V74H1454V0Z" fill="white"/>
</mask>
<g mask="url(#mask0_201_2)">
<path d="M70.913 35.9876L69.741 27.3123H47.8727V38.263H56.755V58.8912H47.8727V69.8419H83.738V58.8912H71.837V49.0376C71.837 43.3083 74.687 39.6039 81.473 39.6039C84.991 39.6039 87.255 40.1118 90.274 41.1209V27.3123C88.266 26.5539 86.339 26.2152 83.657 26.2152C76.284 26.2152 72.261 31.2673 70.92 35.9808L70.913 35.9876ZM33.7882 35.5677V35.2291C40.1566 33.1229 44.0113 28.2401 44.0113 20.3234C44.0113 10.6392 37.306 4.15814 21.5569 4.15814H14.9392V0H0.221298V4.15814H-11.8752V15.1088H-0.560501V31.4028C-0.00790107 31.3621 0.564999 31.3486 1.1513 31.3486C9.7906 31.3486 14.5349 34.8701 14.5349 41.7169C14.5349 47.8186 10.1882 51.5907 2.5327 58.9386L-1.7128 63.0087H6.6301V57.4487H14.9392V41.9742H21.1391C27.339 41.9742 30.2705 44.0804 30.2705 49.7216C30.2705 55.8708 26.7527 57.5503 21.22 57.5503H15.0201V69.8419H22.898C34.7991 69.8419 46.6125 65.8869 46.6125 50.6426C46.6125 41.0396 40.662 37.0847 33.795 35.5677H33.7882ZM21.3008 30.0077H14.9325V16.4565H20.883C25.5734 16.4565 28.5116 18.224 28.5116 23.0255C28.5116 27.827 26.2473 30.0145 21.3076 30.0145L21.3008 30.0077ZM4.3523 42.4076C4.3523 40.078 2.8225 38.5339 0.450401 38.5339C-2.5619 38.5339 -4.1389 40.4166 -4.1389 43.8433V44.8388H-13.1758C-13.0074 46.0172 -12.9265 47.331 -12.9265 48.787C-12.9265 56.5345 -15.4402 60.3269 -20.7168 60.3269C-26.4988 60.3269 -28.5071 56.5345 -28.5071 48.787C-28.5071 41.0396 -26.0743 37.1659 -20.6292 37.1659C-16.9564 37.1659 -14.6652 38.9673 -13.6071 42.7259C-13.1691 37.1727 -9.712 33.2651 -3.8558 31.8836C-7.6027 28.3553 -13.0208 26.2152 -20.2046 26.2152C-37.2138 26.2152 -44 36.3194 -44 49.2882C-44 61.2479 -37.7125 70.9322 -21.2087 70.9322C-17.9808 70.9322 -15.1099 70.5462 -12.5693 69.8419V63.6453L-0.917599 51.286C2.8832 47.2159 4.3658 44.8321 4.3658 42.4008L4.3523 42.4076ZM0.221298 74H14.9392V69.8419H0.221298V74Z" fill="#30F37F"/>
<path d="M205.031 35.9876L203.858 27.3123H181.99V38.263H190.872V58.8912H181.99V69.8419H217.855V58.8912H205.954V49.0376C205.954 43.3083 208.805 39.6039 215.591 39.6039C219.108 39.6039 221.373 40.1118 224.392 41.1209V27.3123C222.384 26.5539 220.456 26.2152 217.774 26.2152C210.402 26.2152 206.379 31.2673 205.037 35.9808L205.031 35.9876ZM167.906 35.5677V35.2291C174.274 33.1229 178.129 28.2401 178.129 20.3234C178.129 10.6392 171.423 4.15814 155.674 4.15814H149.057V0H134.339V4.15814H122.242V15.1088H133.557V31.4028C134.11 31.3621 134.682 31.3486 135.269 31.3486C143.908 31.3486 148.652 34.8701 148.652 41.7169C148.652 47.8186 144.306 51.5907 136.65 58.9386L132.405 63.0087H140.747V57.4487H149.057V41.9742H155.257C161.456 41.9742 164.388 44.0804 164.388 49.7216C164.388 55.8708 160.87 57.5503 155.337 57.5503H149.137V69.8419H157.015C168.916 69.8419 180.73 65.8869 180.73 50.6426C180.73 41.0396 174.779 37.0847 167.912 35.5677H167.906ZM155.418 30.0077H149.05V16.4565H155C159.691 16.4565 162.629 18.224 162.629 23.0255C162.629 27.827 160.365 30.0145 155.425 30.0145L155.418 30.0077ZM138.47 42.4076C138.47 40.078 136.94 38.5339 134.568 38.5339C131.555 38.5339 129.979 40.4166 129.979 43.8433V44.8388H120.942C121.11 46.0172 121.191 47.331 121.191 48.787C121.191 56.5345 118.677 60.3269 113.401 60.3269C107.619 60.3269 105.61 56.5345 105.61 48.787C105.61 41.0396 108.043 37.1659 113.488 37.1659C117.161 37.1659 119.452 38.9673 120.51 42.7259C120.948 37.1727 124.405 33.2651 130.262 31.8836C126.515 28.3553 121.097 26.2152 113.913 26.2152C96.9042 26.2152 90.1172 36.3194 90.1172 49.2882C90.1172 61.2479 96.4052 70.9322 112.909 70.9322C116.137 70.9322 119.007 70.5462 121.548 69.8419V63.6453L133.2 51.286C137.001 47.2159 138.483 44.8321 138.483 42.4008L138.47 42.4076ZM134.339 74H149.057V69.8419H134.339V74Z" fill="#30F37F"/>
<path d="M339.148 35.9876L337.975 27.3123H316.107V38.263H324.989V58.8912H316.107V69.8419H351.972V58.8912H340.071V49.0376C340.071 43.3083 342.922 39.6039 349.708 39.6039C353.225 39.6039 355.49 40.1118 358.509 41.1209V27.3123C356.501 26.5539 354.573 26.2152 351.891 26.2152C344.519 26.2152 340.496 31.2673 339.154 35.9808L339.148 35.9876ZM302.023 35.5677V35.2291C308.391 33.1229 312.246 28.2401 312.246 20.3234C312.246 10.6392 305.54 4.15814 289.791 4.15814H283.174V0H268.456V4.15814H256.359V15.1088H267.674V31.4028C268.227 31.3621 268.799 31.3486 269.386 31.3486C278.025 31.3486 282.769 34.8701 282.769 41.7169C282.769 47.8186 278.423 51.5907 270.767 58.9386L266.522 63.0087H274.864V57.4487H283.174V41.9742H289.373C295.573 41.9742 298.505 44.0804 298.505 49.7216C298.505 55.8708 294.987 57.5503 289.454 57.5503H283.254V69.8419H291.132C303.033 69.8419 314.847 65.8869 314.847 50.6426C314.847 41.0396 308.896 37.0847 302.029 35.5677H302.023ZM289.535 30.0077H283.167V16.4565H289.117C293.808 16.4565 296.746 18.224 296.746 23.0255C296.746 27.827 294.482 30.0145 289.542 30.0145L289.535 30.0077ZM272.587 42.4076C272.587 40.078 271.057 38.5339 268.685 38.5339C265.672 38.5339 264.096 40.4166 264.096 43.8433V44.8388H255.059C255.227 46.0172 255.308 47.331 255.308 48.787C255.308 56.5345 252.794 60.3269 247.518 60.3269C241.736 60.3269 239.727 56.5345 239.727 48.787C239.727 41.0396 242.16 37.1659 247.605 37.1659C251.278 37.1659 253.569 38.9673 254.627 42.7259C255.065 37.1727 258.522 33.2651 264.379 31.8836C260.632 28.3553 255.214 26.2152 248.03 26.2152C231.021 26.2152 224.234 36.3194 224.234 49.2882C224.234 61.2479 230.522 70.9322 247.026 70.9322C250.254 70.9322 253.124 70.5462 255.665 69.8419V63.6453L267.317 51.286C271.118 47.2159 272.6 44.8321 272.6 42.4008L272.587 42.4076ZM268.456 74H283.174V69.8419H268.456V74Z" fill="#30F37F"/>
<path d="M473.265 35.9876L472.092 27.3123H450.224V38.263H459.106V58.8912H450.224V69.8419H486.089V58.8912H474.188V49.0376C474.188 43.3083 477.039 39.6039 483.825 39.6039C487.343 39.6039 489.607 40.1118 492.626 41.1209V27.3123C490.618 26.5539 488.69 26.2152 486.008 26.2152C478.636 26.2152 474.613 31.2673 473.272 35.9808L473.265 35.9876ZM436.14 35.5677V35.2291C442.508 33.1229 446.363 28.2401 446.363 20.3234C446.363 10.6392 439.658 4.15814 423.909 4.15814H417.291V0H402.573V4.15814H390.476V15.1088H401.791V31.4028C402.344 31.3621 402.917 31.3486 403.503 31.3486C412.142 31.3486 416.886 34.8701 416.886 41.7169C416.886 47.8186 412.54 51.5907 404.884 58.9386L400.639 63.0087H408.982V57.4487H417.291V41.9742H423.491C429.691 41.9742 432.622 44.0804 432.622 49.7216C432.622 55.8708 429.104 57.5503 423.572 57.5503H417.372V69.8419H425.25C437.151 69.8419 448.964 65.8869 448.964 50.6426C448.964 41.0396 443.014 37.0847 436.147 35.5677H436.14ZM423.652 30.0077H417.284V16.4565H423.235C427.925 16.4565 430.863 18.224 430.863 23.0255C430.863 27.827 428.599 30.0145 423.659 30.0145L423.652 30.0077ZM406.704 42.4076C406.704 40.078 405.174 38.5339 402.802 38.5339C399.79 38.5339 398.213 40.4166 398.213 43.8433V44.8388H389.176C389.344 46.0172 389.425 47.331 389.425 48.787C389.425 56.5345 386.911 60.3269 381.635 60.3269C375.853 60.3269 373.844 56.5345 373.844 48.787C373.844 41.0396 376.277 37.1659 381.722 37.1659C385.395 37.1659 387.686 38.9673 388.744 42.7259C389.182 37.1727 392.64 33.2651 398.496 31.8836C394.749 28.3553 389.331 26.2152 382.147 26.2152C365.138 26.2152 358.352 36.3194 358.352 49.2882C358.352 61.2479 364.639 70.9322 381.143 70.9322C384.371 70.9322 387.242 70.5462 389.782 69.8419V63.6453L401.434 51.286C405.235 47.2159 406.717 44.8321 406.717 42.4008L406.704 42.4076ZM402.573 74H417.291V69.8419H402.573V74Z" fill="#30F37F"/>
<path d="M607.382 35.9876L606.209 27.3123H584.341V38.263H593.223V58.8912H584.341V69.8419H620.206V58.8912H608.305V49.0376C608.305 43.3083 611.156 39.6039 617.942 39.6039C621.46 39.6039 623.724 40.1118 626.743 41.1209V27.3123C624.735 26.5539 622.808 26.2152 620.126 26.2152C612.753 26.2152 608.73 31.2673 607.389 35.9808L607.382 35.9876ZM570.257 35.5677V35.2291C576.625 33.1229 580.48 28.2401 580.48 20.3234C580.48 10.6392 573.775 4.15814 558.026 4.15814H551.408V0H536.69V4.15814H524.594V15.1088H535.908V31.4028C536.461 31.3621 537.034 31.3486 537.62 31.3486C546.259 31.3486 551.004 34.8701 551.004 41.7169C551.004 47.8186 546.657 51.5907 539.001 58.9386L534.756 63.0087H543.099V57.4487H551.408V41.9742H557.608C563.808 41.9742 566.739 44.0804 566.739 49.7216C566.739 55.8708 563.221 57.5503 557.689 57.5503H551.489V69.8419H559.367C571.268 69.8419 583.081 65.8869 583.081 50.6426C583.081 41.0396 577.131 37.0847 570.264 35.5677H570.257ZM557.77 30.0077H551.401V16.4565H557.352C562.042 16.4565 564.98 18.224 564.98 23.0255C564.98 27.827 562.716 30.0145 557.776 30.0145L557.77 30.0077ZM540.821 42.4076C540.821 40.078 539.291 38.5339 536.919 38.5339C533.907 38.5339 532.33 40.4166 532.33 43.8433V44.8388H523.293C523.461 46.0172 523.542 47.331 523.542 48.787C523.542 56.5345 521.029 60.3269 515.752 60.3269C509.97 60.3269 507.962 56.5345 507.962 48.787C507.962 41.0396 510.394 37.1659 515.84 37.1659C519.512 37.1659 521.804 38.9673 522.862 42.7259C523.3 37.1727 526.757 33.2651 532.613 31.8836C528.866 28.3553 523.448 26.2152 516.264 26.2152C499.255 26.2152 492.469 36.3194 492.469 49.2882C492.469 61.2479 498.756 70.9322 515.26 70.9322C518.488 70.9322 521.359 70.5462 523.899 69.8419V63.6453L535.551 51.286C539.352 47.2159 540.835 44.8321 540.835 42.4008L540.821 42.4076ZM536.69 74H551.408V69.8419H536.69V74Z" fill="#30F37F"/>
<path d="M741.501 35.9876L740.329 27.3123H718.461V38.263H727.343V58.8912H718.461V69.8419H754.326V58.8912H742.424V49.0376C742.424 43.3083 745.275 39.6039 752.061 39.6039C755.579 39.6039 757.843 40.1118 760.862 41.1209V27.3123C758.854 26.5539 756.927 26.2152 754.245 26.2152C746.872 26.2152 742.849 31.2673 741.508 35.9808L741.501 35.9876ZM704.376 35.5677V35.2291C710.744 33.1229 714.599 28.2401 714.599 20.3234C714.599 10.6392 707.894 4.15814 692.145 4.15814H685.527V0H670.809V4.15814H658.713V15.1088H670.027V31.4028C670.58 31.3621 671.153 31.3486 671.739 31.3486C680.379 31.3486 685.123 34.8701 685.123 41.7169C685.123 47.8186 680.776 51.5907 673.121 58.9386L668.875 63.0087H677.218V57.4487H685.527V41.9742H691.727C697.927 41.9742 700.858 44.0804 700.858 49.7216C700.858 55.8708 697.341 57.5503 691.808 57.5503H685.608V69.8419H693.486C705.387 69.8419 717.2 65.8869 717.2 50.6426C717.2 41.0396 711.25 37.0847 704.383 35.5677H704.376ZM691.889 30.0077H685.52V16.4565H691.471C696.161 16.4565 699.099 18.224 699.099 23.0255C699.099 27.827 696.835 30.0145 691.895 30.0145L691.889 30.0077ZM674.94 42.4076C674.94 40.078 673.41 38.5339 671.038 38.5339C668.026 38.5339 666.449 40.4166 666.449 43.8433V44.8388H657.412C657.581 46.0172 657.661 47.331 657.661 48.787C657.661 56.5345 655.148 60.3269 649.871 60.3269C644.089 60.3269 642.081 56.5345 642.081 48.787C642.081 41.0396 644.514 37.1659 649.959 37.1659C653.631 37.1659 655.923 38.9673 656.981 42.7259C657.419 37.1727 660.876 33.2651 666.732 31.8836C662.985 28.3553 657.567 26.2152 650.383 26.2152C633.374 26.2152 626.588 36.3194 626.588 49.2882C626.588 61.2479 632.875 70.9322 649.379 70.9322C652.607 70.9322 655.478 70.5462 658.019 69.8419V63.6453L669.67 51.286C673.471 47.2159 674.954 44.8321 674.954 42.4008L674.94 42.4076ZM670.809 74H685.527V69.8419H670.809V74Z" fill="#30F37F"/>
<path d="M875.618 35.9876L874.446 27.3123H852.578V38.263H861.46V58.8912H852.578V69.8419H888.443V58.8912H876.542V49.0376C876.542 43.3083 879.392 39.6039 886.178 39.6039C889.696 39.6039 891.96 40.1118 894.98 41.1209V27.3123C892.971 26.5539 891.044 26.2152 888.362 26.2152C880.989 26.2152 876.966 31.2673 875.625 35.9808L875.618 35.9876ZM838.493 35.5677V35.2291C844.862 33.1229 848.716 28.2401 848.716 20.3234C848.716 10.6392 842.011 4.15814 826.262 4.15814H819.644V0H804.926V4.15814H792.83V15.1088H804.145V31.4028C804.697 31.3621 805.27 31.3486 805.856 31.3486C814.496 31.3486 819.24 34.8701 819.24 41.7169C819.24 47.8186 814.893 51.5907 807.238 58.9386L802.992 63.0087H811.335V57.4487H819.644V41.9742H825.844C832.044 41.9742 834.976 44.0804 834.976 49.7216C834.976 55.8708 831.458 57.5503 825.925 57.5503H819.725V69.8419H827.603C839.504 69.8419 851.318 65.8869 851.318 50.6426C851.318 41.0396 845.367 37.0847 838.5 35.5677H838.493ZM826.006 30.0077H819.638V16.4565H825.588C830.278 16.4565 833.217 18.224 833.217 23.0255C833.217 27.827 830.952 30.0145 826.013 30.0145L826.006 30.0077ZM809.057 42.4076C809.057 40.078 807.528 38.5339 805.155 38.5339C802.143 38.5339 800.566 40.4166 800.566 43.8433V44.8388H791.529C791.698 46.0172 791.779 47.331 791.779 48.787C791.779 56.5345 789.265 60.3269 783.988 60.3269C778.206 60.3269 776.198 56.5345 776.198 48.787C776.198 41.0396 778.631 37.1659 784.076 37.1659C787.749 37.1659 790.04 38.9673 791.098 42.7259C791.536 37.1727 794.993 33.2651 800.849 31.8836C797.102 28.3553 791.684 26.2152 784.5 26.2152C767.491 26.2152 760.705 36.3194 760.705 49.2882C760.705 61.2479 766.993 70.9322 783.496 70.9322C786.724 70.9322 789.595 70.5462 792.136 69.8419V63.6453L803.787 51.286C807.588 47.2159 809.071 44.8321 809.071 42.4008L809.057 42.4076ZM804.926 74H819.644V69.8419H804.926V74Z" fill="#30F37F"/>
<path d="M1009.73 35.9876L1008.56 27.3123H986.69V38.263H995.58V58.8912H986.69V69.8419H1022.56V58.8912H1010.66V49.0376C1010.66 43.3083 1013.51 39.6039 1020.29 39.6039C1023.81 39.6039 1026.08 40.1118 1029.09 41.1209V27.3123C1027.09 26.5539 1025.16 26.2152 1022.48 26.2152C1015.1 26.2152 1011.08 31.2673 1009.74 35.9808L1009.73 35.9876ZM972.61 35.5677V35.2291C978.98 33.1229 982.83 28.2401 982.83 20.3234C982.83 10.6392 976.13 4.15814 960.38 4.15814H953.76V0H939.042V4.15814H926.945V15.1088H938.26V31.4028C938.812 31.3621 939.385 31.3486 939.972 31.3486C948.611 31.3486 953.355 34.8701 953.355 41.7169C953.355 47.8186 949.009 51.5907 941.353 58.9386L937.108 63.0087H945.45V57.4487H953.76V41.9742H959.96C966.16 41.9742 969.09 44.0804 969.09 49.7216C969.09 55.8708 965.57 57.5503 960.04 57.5503H953.84V69.8419H961.72C973.62 69.8419 985.43 65.8869 985.43 50.6426C985.43 41.0396 979.48 37.0847 972.62 35.5677H972.61ZM960.12 30.0077H953.753V16.4565H959.7C964.39 16.4565 967.33 18.224 967.33 23.0255C967.33 27.827 965.07 30.0145 960.13 30.0145L960.12 30.0077ZM943.173 42.4076C943.173 40.078 941.643 38.5339 939.271 38.5339C936.258 38.5339 934.681 40.4166 934.681 43.8433V44.8388H925.644C925.813 46.0172 925.894 47.331 925.894 48.787C925.894 56.5345 923.38 60.3269 918.104 60.3269C912.321 60.3269 910.313 56.5345 910.313 48.787C910.313 41.0396 912.746 37.1659 918.191 37.1659C921.864 37.1659 924.155 38.9673 925.213 42.7259C925.651 37.1727 929.108 33.2651 934.964 31.8836C931.218 28.3553 925.799 26.2152 918.616 26.2152C901.606 26.2152 894.82 36.3194 894.82 49.2882C894.82 61.2479 901.108 70.9322 917.612 70.9322C920.84 70.9322 923.71 70.5462 926.251 69.8419V63.6453L937.903 51.286C941.703 47.2159 943.186 44.8321 943.186 42.4008L943.173 42.4076ZM939.042 74H953.76V69.8419H939.042V74Z" fill="#30F37F"/>
<path d="M1143.85 35.9876L1142.68 27.3123H1120.81V38.263H1129.69V58.8912H1120.81V69.8419H1156.68V58.8912H1144.77V49.0376C1144.77 43.3083 1147.62 39.6039 1154.41 39.6039C1157.93 39.6039 1160.19 40.1118 1163.21 41.1209V27.3123C1161.2 26.5539 1159.28 26.2152 1156.59 26.2152C1149.22 26.2152 1145.2 31.2673 1143.86 35.9808L1143.85 35.9876ZM1106.73 35.5677V35.2291C1113.09 33.1229 1116.95 28.2401 1116.95 20.3234C1116.95 10.6392 1110.24 4.15814 1094.49 4.15814H1087.88V0H1073.16V4.15814H1061.06V15.1088H1072.38V31.4028C1072.93 31.3621 1073.5 31.3486 1074.09 31.3486C1082.73 31.3486 1087.47 34.8701 1087.47 41.7169C1087.47 47.8186 1083.13 51.5907 1075.47 58.9386L1071.22 63.0087H1079.57V57.4487H1087.88V41.9742H1094.08C1100.28 41.9742 1103.21 44.0804 1103.21 49.7216C1103.21 55.8708 1099.69 57.5503 1094.16 57.5503H1087.96V69.8419H1095.84C1107.74 69.8419 1119.55 65.8869 1119.55 50.6426C1119.55 41.0396 1113.6 37.0847 1106.73 35.5677ZM1094.24 30.0077H1087.87V16.4565H1093.82C1098.51 16.4565 1101.45 18.224 1101.45 23.0255C1101.45 27.827 1099.18 30.0145 1094.25 30.0145L1094.24 30.0077ZM1077.29 42.4076C1077.29 40.078 1075.76 38.5339 1073.39 38.5339C1070.38 38.5339 1068.8 40.4166 1068.8 43.8433V44.8388H1059.76C1059.93 46.0172 1060.01 47.331 1060.01 48.787C1060.01 56.5345 1057.5 60.3269 1052.22 60.3269C1046.44 60.3269 1044.43 56.5345 1044.43 48.787C1044.43 41.0396 1046.86 37.1659 1052.31 37.1659C1055.98 37.1659 1058.27 38.9673 1059.33 42.7259C1059.77 37.1727 1063.23 33.2651 1069.08 31.8836C1065.33 28.3553 1059.92 26.2152 1052.73 26.2152C1035.72 26.2152 1028.94 36.3194 1028.94 49.2882C1028.94 61.2479 1035.22 70.9322 1051.73 70.9322C1054.96 70.9322 1057.83 70.5462 1060.37 69.8419V63.6453L1072.02 51.286C1075.82 47.2159 1077.3 44.8321 1077.3 42.4008L1077.29 42.4076ZM1073.16 74H1087.88V69.8419H1073.16V74Z" fill="#30F37F"/>
<path d="M1277.97 35.9876L1276.8 27.3123H1254.93V38.263H1263.81V58.8912H1254.93V69.8419H1290.8V58.8912H1278.9V49.0376C1278.9 43.3083 1281.75 39.6039 1288.53 39.6039C1292.05 39.6039 1294.31 40.1118 1297.33 41.1209V27.3123C1295.32 26.5539 1293.4 26.2152 1290.72 26.2152C1283.34 26.2152 1279.32 31.2673 1277.98 35.9808L1277.97 35.9876ZM1240.85 35.5677V35.2291C1247.22 33.1229 1251.07 28.2401 1251.07 20.3234C1251.07 10.6392 1244.36 4.15814 1228.62 4.15814H1222V0H1207.28V4.15814H1195.18V15.1088H1206.5V31.4028C1207.05 31.3621 1207.62 31.3486 1208.21 31.3486C1216.85 31.3486 1221.59 34.8701 1221.59 41.7169C1221.59 47.8186 1217.25 51.5907 1209.59 58.9386L1205.35 63.0087H1213.69V57.4487H1222V41.9742H1228.2C1234.4 41.9742 1237.33 44.0804 1237.33 49.7216C1237.33 55.8708 1233.81 57.5503 1228.28 57.5503H1222.08V69.8419H1229.96C1241.86 69.8419 1253.67 65.8869 1253.67 50.6426C1253.67 41.0396 1247.72 37.0847 1240.85 35.5677ZM1228.36 30.0077H1221.99V16.4565H1227.94C1232.63 16.4565 1235.57 18.224 1235.57 23.0255C1235.57 27.827 1233.31 30.0145 1228.37 30.0145L1228.36 30.0077ZM1211.41 42.4076C1211.41 40.078 1209.88 38.5339 1207.51 38.5339C1204.5 38.5339 1202.92 40.4166 1202.92 43.8433V44.8388H1193.88C1194.05 46.0172 1194.13 47.331 1194.13 48.787C1194.13 56.5345 1191.62 60.3269 1186.34 60.3269C1180.56 60.3269 1178.55 56.5345 1178.55 48.787C1178.55 41.0396 1180.98 37.1659 1186.43 37.1659C1190.1 37.1659 1192.39 38.9673 1193.45 42.7259C1193.89 37.1727 1197.35 33.2651 1203.2 31.8836C1199.46 28.3553 1194.04 26.2152 1186.85 26.2152C1169.84 26.2152 1163.06 36.3194 1163.06 49.2882C1163.06 61.2479 1169.35 70.9322 1185.85 70.9322C1189.08 70.9322 1191.95 70.5462 1194.49 69.8419V63.6453L1206.14 51.286C1209.94 47.2159 1211.42 44.8321 1211.42 42.4008L1211.41 42.4076ZM1207.28 74H1222V69.8419H1207.28V74Z" fill="#30F37F"/>
<path d="M1412.09 35.9876L1410.92 27.3123H1389.05V38.263H1397.93V58.8912H1389.05V69.8419H1424.91V58.8912H1413.01V49.0376C1413.01 43.3083 1415.86 39.6039 1422.65 39.6039C1426.17 39.6039 1428.43 40.1118 1431.45 41.1209V27.3123C1429.44 26.5539 1427.51 26.2152 1424.83 26.2152C1417.46 26.2152 1413.44 31.2673 1412.1 35.9808L1412.09 35.9876ZM1374.96 35.5677V35.2291C1381.33 33.1229 1385.19 28.2401 1385.19 20.3234C1385.19 10.6392 1378.48 4.15814 1362.73 4.15814H1356.12V0H1341.4V4.15814H1329.3V15.1088H1340.62V31.4028C1341.17 31.3621 1341.74 31.3486 1342.33 31.3486C1350.97 31.3486 1355.71 34.8701 1355.71 41.7169C1355.71 47.8186 1351.36 51.5907 1343.71 58.9386L1339.46 63.0087H1347.81V57.4487H1356.12V41.9742H1362.31C1368.51 41.9742 1371.45 44.0804 1371.45 49.7216C1371.45 55.8708 1367.93 57.5503 1362.4 57.5503H1356.2V69.8419H1364.07C1375.97 69.8419 1387.79 65.8869 1387.79 50.6426C1387.79 41.0396 1381.84 37.0847 1374.97 35.5677H1374.96ZM1362.48 30.0077H1356.11V16.4565H1362.06C1366.75 16.4565 1369.69 18.224 1369.69 23.0255C1369.69 27.827 1367.42 30.0145 1362.48 30.0145V30.0077ZM1345.53 42.4076C1345.53 40.078 1344 38.5339 1341.63 38.5339C1338.61 38.5339 1337.04 40.4166 1337.04 43.8433V44.8388H1328C1328.17 46.0172 1328.25 47.331 1328.25 48.787C1328.25 56.5345 1325.74 60.3269 1320.46 60.3269C1314.68 60.3269 1312.67 56.5345 1312.67 48.787C1312.67 41.0396 1315.1 37.1659 1320.55 37.1659C1324.22 37.1659 1326.51 38.9673 1327.57 42.7259C1328.01 37.1727 1331.46 33.2651 1337.32 31.8836C1333.57 28.3553 1328.15 26.2152 1320.97 26.2152C1303.96 26.2152 1297.18 36.3194 1297.18 49.2882C1297.18 61.2479 1303.46 70.9322 1319.97 70.9322C1323.2 70.9322 1326.07 70.5462 1328.61 69.8419V63.6453L1340.26 51.286C1344.06 47.2159 1345.54 44.8321 1345.54 42.4008L1345.53 42.4076ZM1341.4 74H1356.12V69.8419H1341.4V74Z" fill="#30F37F"/>
</g>
</g>
<defs>
<clipPath id="clip0_201_2">
<rect width="1341" height="74" fill="white"/>
</clipPath>
</defs>
</svg>
