<?xml version="1.0" encoding="utf-8"?>
<!-- Generator: Adobe Illustrator 27.3.1, SVG Export Plug-In . SVG Version: 6.00 Build 0)  -->
<svg version="1.1" id="Layer_1" xmlns="http://www.w3.org/2000/svg" xmlns:xlink="http://www.w3.org/1999/xlink" x="0px" y="0px"
	 viewBox="0 0 200 65" style="enable-background:new 0 0 200 65;" xml:space="preserve">
<style type="text/css">
	.st0{fill:#FFFFFF;filter:url(#Adobe_OpacityMaskFilter);}
	.st1{mask:url(#mask0_812_3445_00000115485888459776163710000009562580374623726263_);}
	.st2{fill:#3EF2D0;}
	.st3{fill:#222223;}
	.st4{fill:#C1C1C1;}
</style>
<defs>
	<filter id="Adobe_OpacityMaskFilter" filterUnits="userSpaceOnUse" x="0" y="0.1" width="82.5" height="64.9">
		<feColorMatrix  type="matrix" values="1 0 0 0 0  0 1 0 0 0  0 0 1 0 0  0 0 0 1 0"/>
	</filter>
</defs>
<mask maskUnits="userSpaceOnUse" x="0" y="0.1" width="82.5" height="64.9" id="mask0_812_3445_00000115485888459776163710000009562580374623726263_">
	<path class="st0" d="M82.5,0.1H0V65h82.5V0.1z"/>
</mask>
<g class="st1">
	<path class="st2" d="M82.5,0.1H0V65h82.5V0.1z"/>
	<path class="st3" d="M70,8.2v13.3h-4.4V8.2h-4.4v13.3h-4.4V8.2h-4.4v13.3H30.2V8.2h-4.4v13.3v4.4H70v4.4h-4.4h-4.4H21.3V8.2h-4.4
		v22.2h-4.4V8.2H8.1v22.2v4.4v22.2h4.4V43.6h4.4v13.3h4.4V43.6h4.4v13.3h4.4V43.6h22.1v13.3h4.4V43.6v-4.4H21.3h-4.4h-4.4v-4.4h4.4
		h4.4h39.9v22.2h4.4V34.8H70v22.2h4.4V34.8v-4.4v-4.4v-4.4V8.2H70z"/>
</g>
<path class="st4" d="M100.7,8.5c1.8,0,3.1,0.3,4,0.9c0.9,0.6,1.4,1.7,1.4,3.3c0,1.6-0.4,2.7-1.4,3.4c-0.9,0.6-2.2,0.9-4,0.9h-2.1
	v4.5H97V8.5H100.7z M100.7,15.8c0.6,0,1.1,0,1.6-0.1c0.4-0.1,0.8-0.2,1.2-0.4c0.4-0.2,0.6-0.5,0.8-0.9c0.2-0.4,0.3-0.9,0.3-1.6
	c0-1.2-0.3-2-1-2.4c-0.6-0.4-1.6-0.6-2.9-0.6h-2.2v6H100.7z"/>
<path class="st4" d="M108.2,21.6v-8.1c0-0.9,0.4-1.3,1.3-1.3l5.1,0.2v1.3l-4.9-0.2v8.1H108.2z"/>
<path class="st4" d="M115.3,17c0-1.4,0.5-2.5,1.4-3.4c0.9-0.9,2.1-1.4,3.5-1.4c1.4,0,2.6,0.5,3.5,1.4c0.9,0.9,1.4,2.1,1.4,3.4
	c0,1.4-0.4,2.5-1.4,3.4c-0.9,0.9-2,1.4-3.5,1.4c-1.4,0-2.6-0.5-3.5-1.4C115.8,19.5,115.3,18.3,115.3,17z M116.8,17
	c0,1,0.3,1.9,0.9,2.5c0.6,0.7,1.4,1,2.5,1c1,0,1.9-0.3,2.4-1c0.6-0.7,0.9-1.5,0.9-2.5c0-1-0.3-1.8-0.9-2.5c-0.6-0.7-1.4-1-2.4-1
	c-1,0-1.9,0.3-2.5,1C117.1,15.1,116.8,16,116.8,17z"/>
<path class="st4" d="M126.8,17c0-1.4,0.5-2.5,1.4-3.4c0.9-0.9,2.1-1.4,3.5-1.4c1.4,0,2.6,0.5,3.5,1.4c0.9,0.9,1.4,2.1,1.4,3.4
	c0,1.4-0.5,2.5-1.4,3.4c-0.9,0.9-2,1.4-3.5,1.4c-1.4,0-2.6-0.5-3.5-1.4C127.2,19.5,126.8,18.3,126.8,17z M128.3,17
	c0,1,0.3,1.9,0.9,2.5c0.6,0.7,1.4,1,2.5,1c1.1,0,1.9-0.3,2.4-1c0.6-0.7,0.9-1.5,0.9-2.5c0-1-0.3-1.8-0.9-2.5c-0.6-0.7-1.4-1-2.4-1
	c-1,0-1.9,0.3-2.5,1C128.6,15.1,128.3,16,128.3,17z"/>
<path class="st4" d="M143,9.3c-0.6,0-1,0.1-1.2,0.4c-0.2,0.3-0.3,0.7-0.3,1.3v1.4h2.7v1.3h-2.7v6.6h2.7v1.3h-6.2v-1.3h2v-6.6h-2
	v-1.3h2V11c0-2,1-3,3.1-3h1.6v1.3H143z"/>
<path class="st4" d="M145.7,16.9c0-1.5,0.4-2.6,1.2-3.4c0.8-0.8,1.9-1.2,3.2-1.2c1.3,0,2.4,0.4,3.1,1.2c0.8,0.8,1.2,1.9,1.2,3.3v0.6
	h-7.3c0.1,1,0.3,1.7,0.8,2.4c0.5,0.6,1.3,0.9,2.4,0.9c0.8,0,1.4-0.2,1.9-0.5c0.5-0.4,0.8-0.9,1-1.6h1.5c-0.1,0.4-0.2,0.8-0.4,1.1
	c-0.2,0.4-0.4,0.7-0.8,1.1c-0.3,0.4-0.8,0.6-1.3,0.9c-0.5,0.2-1.2,0.3-1.9,0.3c-1.6,0-2.7-0.5-3.5-1.4
	C146.1,19.5,145.7,18.3,145.7,16.9z M147.2,16.1h5.8c0-0.8-0.2-1.4-0.7-1.9c-0.5-0.5-1.2-0.8-2.1-0.8c-0.9,0-1.6,0.3-2.2,0.8
	C147.4,14.7,147.2,15.4,147.2,16.1z"/>
<path class="st4" d="M166.3,21.6h-1.5v-1.4l0.3-1h-0.4c-0.2,0.8-0.6,1.4-1.3,1.9c-0.6,0.5-1.4,0.7-2.4,0.7c-1.3,0-2.4-0.5-3.2-1.4
	c-0.8-0.9-1.2-2.1-1.2-3.4c0-1.4,0.4-2.5,1.2-3.4c0.8-0.9,1.9-1.4,3.2-1.4c1,0,1.8,0.2,2.4,0.7c0.6,0.5,1.1,1.1,1.3,1.9h0.4
	l-0.3-1.1V8h1.5V21.6z M164.8,17c0-1.2-0.3-2-1-2.6c-0.6-0.6-1.5-0.9-2.5-0.9c-1,0-1.8,0.3-2.4,0.9c-0.6,0.6-0.9,1.4-0.9,2.6
	s0.3,2.1,0.9,2.6c0.6,0.6,1.4,0.9,2.4,0.9c1,0,1.9-0.3,2.5-0.9C164.5,19,164.8,18.2,164.8,17z"/>
<path class="st4" d="M97,39.3V25.7h1.5v5.8l-0.2,1.1h0.4c0.2-0.8,0.6-1.4,1.3-1.9c0.6-0.5,1.5-0.7,2.5-0.7c1.3,0,2.4,0.5,3.2,1.4
	c0.8,0.9,1.2,2,1.2,3.4c0,1.4-0.4,2.5-1.2,3.4c-0.8,0.9-1.9,1.4-3.2,1.4c-1,0-1.8-0.2-2.5-0.7c-0.6-0.5-1-1.1-1.3-1.9h-0.4l0.2,1
	v1.4H97z M98.5,34.7c0,1.2,0.3,2.1,1,2.6c0.7,0.6,1.5,0.9,2.5,0.9c1,0,1.8-0.3,2.4-0.9c0.6-0.6,0.9-1.5,0.9-2.6c0-1.2-0.3-2-0.9-2.6
	c-0.6-0.6-1.4-0.9-2.4-0.9c-1,0-1.8,0.3-2.5,0.9C98.9,32.7,98.5,33.6,98.5,34.7z"/>
<path class="st4" d="M115.5,30.1h1.6l-4,9.1v2.6c0,0.8-0.4,1.1-1.3,1.1l-3.6-0.2v-1.3l3.3,0.2v-2.4l-4-9.1h1.7l2.9,7.2V38h0.4v-0.7
	L115.5,30.1z"/>
<path class="st4" d="M134.5,26.3h1.5v13.1h-1.5v-5.8h-7.7v5.8h-1.5V26.3h1.5v6h7.7V26.3z"/>
<path class="st4" d="M100,57.5c-0.9,0-1.6-0.2-2.2-0.6c-0.5-0.4-0.8-1-0.9-1.7h0.9c0,0.5,0.3,0.8,0.6,1.1c0.4,0.3,0.9,0.4,1.5,0.4
	c0.5,0,1-0.1,1.3-0.4c0.3-0.2,0.5-0.5,0.5-0.9c0-0.2,0-0.3-0.1-0.5c-0.1-0.1-0.1-0.2-0.2-0.3c-0.1-0.1-0.2-0.2-0.4-0.2
	c-0.2-0.1-0.4-0.1-0.5-0.2c-0.2,0-0.4-0.1-0.7-0.1c-0.2,0-0.3-0.1-0.4-0.1c-0.1,0-0.2,0-0.4-0.1c-0.2,0-0.3-0.1-0.4-0.1
	c-0.1,0-0.2-0.1-0.4-0.1c-0.2-0.1-0.3-0.1-0.4-0.2c-0.1-0.1-0.2-0.2-0.3-0.2c-0.1-0.1-0.2-0.2-0.2-0.3c0-0.1-0.1-0.3-0.1-0.4
	c0-0.2-0.1-0.3-0.1-0.5c0-0.6,0.2-1.1,0.7-1.5c0.5-0.4,1.1-0.6,1.9-0.6c0.8,0,1.4,0.2,1.9,0.6c0.5,0.4,0.8,0.9,0.9,1.6h-0.9
	c-0.1-0.4-0.3-0.8-0.6-1c-0.3-0.2-0.7-0.4-1.2-0.4c-0.5,0-0.9,0.1-1.2,0.4c-0.3,0.2-0.5,0.5-0.5,0.9c0,0.5,0.2,0.8,0.7,1
	c0.2,0.1,0.6,0.2,1.3,0.3c0.3,0.1,0.5,0.1,0.7,0.1c0.2,0,0.4,0.1,0.6,0.2c0.2,0.1,0.4,0.2,0.6,0.3c0.1,0.1,0.3,0.2,0.4,0.4
	c0.1,0.1,0.2,0.3,0.3,0.5c0.1,0.2,0.1,0.4,0.1,0.7c0,0.6-0.3,1.1-0.8,1.5C101.4,57.3,100.8,57.5,100,57.5z"/>
<path class="st4" d="M110.2,51.7c0.6,0,1,0.2,1.4,0.5c0.4,0.4,0.5,0.8,0.5,1.4v3.7h-0.8v-3.6c0-0.4-0.1-0.7-0.3-0.9
	c-0.2-0.2-0.5-0.3-0.8-0.3c-0.5,0-0.9,0.1-1.2,0.4c-0.3,0.3-0.4,0.7-0.4,1.1v3.3h-0.9v-3.6c0-0.4-0.1-0.7-0.4-0.9
	c-0.2-0.2-0.5-0.3-0.9-0.3c-0.5,0-0.9,0.1-1.2,0.4c-0.3,0.3-0.4,0.7-0.4,1.1v3.3h-0.9v-5.5h0.7l0.1,0.7c0.2-0.3,0.5-0.5,0.8-0.6
	c0.3-0.2,0.7-0.2,1-0.2c0.4,0,0.8,0.1,1.1,0.3c0.3,0.2,0.5,0.4,0.7,0.8c0.2-0.3,0.4-0.6,0.8-0.8C109.4,51.8,109.8,51.7,110.2,51.7z"
	/>
<path class="st4" d="M118.1,56.6h0.3v0.8H118c-0.3,0-0.5-0.1-0.7-0.2c-0.2-0.1-0.3-0.3-0.3-0.6v0c-0.4,0.6-1,0.9-1.9,0.9
	c-0.6,0-1.1-0.1-1.5-0.4c-0.4-0.3-0.6-0.7-0.6-1.1c0-0.4,0.1-0.6,0.3-0.9c0.2-0.2,0.4-0.4,0.7-0.5c0.3-0.1,0.6-0.2,0.9-0.2
	c0.3-0.1,0.6-0.1,0.9-0.1c0.3,0,0.5,0,0.7-0.1c0.2-0.1,0.3-0.1,0.3-0.2c0-0.4-0.1-0.7-0.4-0.9c-0.2-0.2-0.6-0.3-1-0.3
	c-0.4,0-0.8,0.1-1.1,0.3c-0.3,0.2-0.4,0.4-0.5,0.7h-0.8c0-0.5,0.3-1,0.7-1.3c0.4-0.3,1-0.5,1.6-0.5c0.7,0,1.2,0.2,1.6,0.5
	c0.4,0.4,0.6,0.9,0.6,1.5v2.5C117.8,56.5,117.9,56.6,118.1,56.6z M115.2,56.7c0.6,0,1-0.1,1.3-0.4c0.3-0.3,0.4-0.7,0.4-1.2v-0.6
	c-0.1,0.1-0.3,0.2-0.6,0.2c-0.3,0-0.7,0.1-1,0.1c-0.3,0-0.7,0.1-0.9,0.2c-0.3,0.2-0.4,0.4-0.4,0.7c0,0.3,0.1,0.5,0.4,0.6
	C114.5,56.6,114.8,56.7,115.2,56.7z"/>
<path class="st4" d="M122.1,51.8h0.2v0.8h-0.2c-0.6,0-1,0.2-1.4,0.5c-0.3,0.3-0.5,0.7-0.5,1.3v2.9h-0.9v-5.5h0.7l0.1,1
	C120.5,52.2,121.1,51.8,122.1,51.8z"/>
<path class="st4" d="M126,52.6h-1.5v3.2c0,0.2,0.1,0.4,0.2,0.6c0.1,0.1,0.3,0.2,0.5,0.2h0.7v0.8h-0.7c-0.5,0-0.9-0.1-1.1-0.4
	c-0.3-0.3-0.4-0.7-0.4-1.2v-3.2h-1v-0.8h1v-1.3h0.8v1.3h1.5V52.6z"/>
<path class="st4" d="M132.7,57.5c-1.1,0-2-0.3-2.6-1c-0.6-0.7-0.9-1.6-0.9-2.7c0-1.1,0.3-2,1-2.7c0.6-0.7,1.5-1,2.6-1
	c0.9,0,1.7,0.3,2.3,0.8c0.6,0.5,1,1.2,1.1,2.1h-0.9c-0.1-0.7-0.4-1.2-0.9-1.5c-0.4-0.4-1-0.6-1.6-0.6c-0.8,0-1.5,0.3-1.9,0.8
	c-0.5,0.5-0.7,1.2-0.7,2.1c0,0.9,0.2,1.7,0.7,2.2c0.5,0.5,1.1,0.8,1.9,0.8c0.7,0,1.2-0.2,1.7-0.5c0.4-0.4,0.7-0.9,0.9-1.6h0.9
	c-0.2,0.9-0.5,1.7-1.1,2.2C134.4,57.2,133.7,57.5,132.7,57.5z"/>
<path class="st4" d="M139.8,57.5c-0.8,0-1.5-0.3-2-0.8c-0.5-0.5-0.7-1.2-0.7-2.1c0-0.9,0.3-1.6,0.8-2.1c0.5-0.5,1.1-0.7,1.9-0.7
	c0.8,0,1.5,0.3,2,0.8c0.5,0.5,0.7,1.2,0.7,2c0,0.9-0.2,1.6-0.7,2.1C141.2,57.2,140.6,57.5,139.8,57.5z M139.8,56.7
	c0.6,0,1-0.2,1.3-0.6c0.3-0.4,0.5-0.9,0.5-1.6c0-0.6-0.2-1.1-0.5-1.5c-0.3-0.4-0.8-0.6-1.3-0.6c-0.6,0-1,0.2-1.3,0.6
	c-0.3,0.4-0.5,0.9-0.5,1.5c0,0.7,0.2,1.2,0.5,1.6C138.8,56.5,139.3,56.7,139.8,56.7z"/>
<path class="st4" d="M146.2,51.7c0.6,0,1.1,0.2,1.5,0.5c0.4,0.4,0.5,0.8,0.5,1.4v3.7h-0.8v-3.6c0-0.4-0.1-0.7-0.4-0.9
	c-0.2-0.2-0.5-0.3-0.9-0.3c-0.5,0-0.9,0.1-1.2,0.4c-0.3,0.3-0.4,0.7-0.4,1.1v3.3h-0.9v-5.5h0.7l0.1,0.7c0.2-0.3,0.5-0.5,0.8-0.6
	C145.5,51.8,145.8,51.7,146.2,51.7z"/>
<path class="st4" d="M152.3,52.6h-1.5v3.2c0,0.2,0.1,0.4,0.2,0.6c0.1,0.1,0.3,0.2,0.5,0.2h0.7v0.8h-0.7c-0.5,0-0.9-0.1-1.1-0.4
	c-0.3-0.3-0.4-0.7-0.4-1.2v-3.2h-1v-0.8h1v-1.3h0.8v1.3h1.5V52.6z"/>
<path class="st4" d="M156,51.8h0.2v0.8H156c-0.6,0-1,0.2-1.4,0.5c-0.3,0.3-0.5,0.7-0.5,1.3v2.9h-0.9v-5.5h0.7l0.1,1
	C154.4,52.2,155.1,51.8,156,51.8z"/>
<path class="st4" d="M161.8,56.6h0.3v0.8h-0.4c-0.3,0-0.5-0.1-0.7-0.2c-0.2-0.1-0.3-0.3-0.3-0.6v0c-0.4,0.6-1,0.9-1.9,0.9
	c-0.6,0-1.1-0.1-1.5-0.4c-0.4-0.3-0.6-0.7-0.6-1.1c0-0.4,0.1-0.6,0.3-0.9c0.2-0.2,0.4-0.4,0.7-0.5c0.3-0.1,0.6-0.2,0.9-0.2
	c0.3-0.1,0.6-0.1,0.9-0.1c0.3,0,0.5,0,0.7-0.1c0.2-0.1,0.3-0.1,0.3-0.2c0-0.4-0.1-0.7-0.4-0.9c-0.2-0.2-0.6-0.3-1-0.3
	c-0.4,0-0.8,0.1-1.1,0.3c-0.3,0.2-0.4,0.4-0.5,0.7h-0.8c0-0.5,0.3-1,0.7-1.3c0.4-0.3,1-0.5,1.6-0.5c0.7,0,1.2,0.2,1.6,0.5
	c0.4,0.4,0.6,0.9,0.6,1.5v2.5C161.4,56.5,161.6,56.6,161.8,56.6z M158.8,56.7c0.6,0,1-0.1,1.3-0.4c0.3-0.3,0.4-0.7,0.4-1.2v-0.6
	c-0.1,0.1-0.3,0.2-0.6,0.2c-0.3,0-0.7,0.1-1,0.1c-0.3,0-0.7,0.1-0.9,0.2c-0.3,0.2-0.4,0.4-0.4,0.7c0,0.3,0.1,0.5,0.4,0.6
	C158.2,56.6,158.5,56.7,158.8,56.7z"/>
<path class="st4" d="M165.5,57.5c-0.9,0-1.5-0.3-2-0.8c-0.5-0.6-0.7-1.2-0.7-2.1c0-0.9,0.3-1.6,0.8-2.1c0.5-0.5,1.1-0.8,1.9-0.8
	c0.7,0,1.3,0.2,1.7,0.6c0.5,0.4,0.7,0.9,0.8,1.6h-0.8c-0.1-0.5-0.3-0.8-0.6-1.1c-0.3-0.3-0.7-0.4-1.1-0.4c-0.5,0-1,0.2-1.3,0.6
	c-0.3,0.4-0.5,0.9-0.5,1.5c0,0.7,0.2,1.2,0.5,1.6c0.4,0.4,0.8,0.6,1.4,0.6c0.4,0,0.8-0.1,1.1-0.4c0.3-0.3,0.5-0.6,0.5-1.1h0.8
	c-0.1,0.7-0.3,1.3-0.8,1.7C166.7,57.3,166.2,57.5,165.5,57.5z"/>
<path class="st4" d="M171.8,52.6h-1.5v3.2c0,0.2,0.1,0.4,0.2,0.6c0.1,0.1,0.3,0.2,0.5,0.2h0.7v0.8H171c-0.5,0-0.9-0.1-1.1-0.4
	c-0.3-0.3-0.4-0.7-0.4-1.2v-3.2h-1v-0.8h1v-1.3h0.9v1.3h1.5V52.6z"/>
<path class="st4" d="M180.7,57.3l-0.9-2.1h-3.4l-0.9,2.1h-0.8l3-7.3h0.9l3,7.3H180.7z M176.7,54.4h2.7l-1.4-3.3L176.7,54.4z"/>
<path class="st4" d="M186.2,51.8h0.9v5.5h-0.7l-0.1-0.8c-0.2,0.3-0.4,0.5-0.7,0.7c-0.3,0.2-0.7,0.2-1,0.2c-0.7,0-1.2-0.2-1.5-0.5
	c-0.4-0.4-0.6-0.8-0.6-1.4v-3.7h0.9v3.6c0,0.4,0.1,0.7,0.4,0.9c0.2,0.2,0.6,0.3,1,0.3c0.5,0,0.9-0.1,1.2-0.4
	c0.3-0.3,0.4-0.7,0.4-1.1V51.8z"/>
<path class="st4" d="M192.6,49.6h0.9v7.8h-0.7l-0.1-0.8c-0.4,0.6-1,1-1.9,1c-0.8,0-1.4-0.3-1.9-0.8c-0.4-0.5-0.7-1.2-0.7-2
	c0-0.9,0.2-1.6,0.7-2.1c0.5-0.5,1.1-0.8,1.8-0.8c0.7,0,1.3,0.3,1.8,0.8V49.6z M190.8,56.7c0.5,0,0.9-0.2,1.2-0.5
	c0.3-0.4,0.5-0.8,0.5-1.4l0-0.2l0-0.2c0-0.6-0.2-1-0.5-1.3c-0.3-0.3-0.7-0.5-1.2-0.5c-0.5,0-0.9,0.2-1.3,0.6
	c-0.3,0.4-0.5,0.9-0.5,1.5c0,0.6,0.2,1.1,0.5,1.5C189.9,56.5,190.3,56.7,190.8,56.7z"/>
<path class="st4" d="M195.8,50.8c-0.1,0.1-0.3,0.2-0.4,0.2c-0.2,0-0.3-0.1-0.5-0.2c-0.1-0.1-0.2-0.3-0.2-0.5c0-0.2,0.1-0.3,0.2-0.4
	c0.1-0.1,0.3-0.2,0.5-0.2c0.2,0,0.3,0.1,0.4,0.2c0.1,0.1,0.2,0.3,0.2,0.4C196,50.5,195.9,50.6,195.8,50.8z M194.9,57.3v-5.5h0.8v5.5
	H194.9z"/>
<path class="st4" d="M200,52.6h-1.5v3.2c0,0.2,0.1,0.4,0.2,0.6c0.1,0.1,0.3,0.2,0.5,0.2h0.7v0.8h-0.7c-0.5,0-0.9-0.1-1.1-0.4
	c-0.3-0.3-0.4-0.7-0.4-1.2v-3.2h-1v-0.8h1v-1.3h0.8v1.3h1.5V52.6z"/>
<path class="st4" d="M138.2,36.8c0-1.6,1-2.5,3-2.7l3.7-0.4c-0.1-1.7-1-2.5-2.6-2.5c-0.7,0-1.4,0.2-1.9,0.6c-0.5,0.4-0.7,1-0.7,1.8
	h-1.5c0-1,0.4-1.9,1.1-2.6c0.7-0.7,1.7-1.1,3-1.1c1.3,0,2.3,0.4,3,1.1c0.7,0.8,1.1,1.8,1.1,3V38h1.4v1.3h-1.6
	c-0.7,0-1.1-0.4-1.1-1.1v-0.5l0.2-1h-0.4c-0.5,1.8-1.6,2.7-3.6,2.7c-0.5,0-1-0.1-1.4-0.2c-0.4-0.1-0.7-0.3-0.9-0.5
	c-0.2-0.2-0.4-0.4-0.5-0.7c-0.1-0.3-0.2-0.5-0.3-0.7C138.2,37.2,138.2,37,138.2,36.8z M139.7,36.6c0,0.5,0.2,0.9,0.5,1.2
	s0.7,0.4,1.3,0.4c1,0,1.9-0.3,2.5-0.9c0.6-0.6,0.9-1.4,0.9-2.4l-3.4,0.4c-0.6,0.1-1,0.2-1.3,0.4C139.9,35.8,139.7,36.1,139.7,36.6z"
	/>
<path class="st4" d="M148.8,34.7c0-1.4,0.4-2.5,1.3-3.4c0.9-0.9,2-1.4,3.4-1.4c0.6,0,1.3,0.1,1.9,0.4c0.6,0.2,1.1,0.6,1.6,1.2
	c0.5,0.6,0.8,1.3,0.8,2.1h-1.5c-0.2-1.6-1.2-2.4-2.8-2.4c-1,0-1.8,0.3-2.4,1c-0.5,0.7-0.8,1.5-0.8,2.5c0,1,0.3,1.9,0.8,2.5
	c0.5,0.7,1.3,1,2.4,1c1.6,0,2.5-0.8,2.8-2.4h1.5c-0.1,0.8-0.4,1.6-0.8,2.1c-0.5,0.6-1,1-1.6,1.2c-0.6,0.2-1.2,0.3-1.9,0.3
	c-1.4,0-2.6-0.5-3.4-1.4C149.2,37.2,148.8,36.1,148.8,34.7z"/>
<path class="st4" d="M166.5,39.3l-3.1-4.3l-1.9,1.1v3.2H160V25.7h1.5v8.8l4.7-2.6l-0.2-1.8h1.5l0.1,1.7c0,0.6-0.2,1-0.7,1.3
	l-2.3,1.2l3.6,5H166.5z"/>
<path class="st4" d="M169.4,34.6c0-1.5,0.4-2.6,1.2-3.4c0.8-0.8,1.9-1.2,3.2-1.2c1.3,0,2.4,0.4,3.1,1.2c0.8,0.8,1.2,1.9,1.2,3.3V35
	h-7.3c0,1,0.3,1.7,0.8,2.4c0.5,0.6,1.3,0.9,2.4,0.9c0.8,0,1.4-0.2,1.9-0.5c0.5-0.4,0.8-0.9,1-1.6h1.5c-0.1,0.4-0.2,0.8-0.4,1.1
	c-0.2,0.4-0.4,0.7-0.8,1.1c-0.3,0.4-0.8,0.6-1.3,0.9c-0.5,0.2-1.2,0.3-1.9,0.3c-1.6,0-2.7-0.5-3.5-1.4
	C169.8,37.2,169.4,36,169.4,34.6z M170.9,33.9h5.8c0-0.8-0.2-1.4-0.7-1.9c-0.5-0.5-1.2-0.8-2.1-0.8s-1.6,0.3-2.2,0.8
	C171.1,32.5,170.9,33.1,170.9,33.9z"/>
<path class="st4" d="M185.4,31.2c-1,0-1.8,0.4-2.4,1.1c-0.6,0.7-0.9,1.7-0.9,2.9v4.1h-1.5v-9.2h1.5v1.6l-0.2,1.1h0.4
	c0.2-0.9,0.6-1.6,1.2-2.1c0.6-0.5,1.4-0.8,2.4-0.8c1.1,0,1.9,0.3,2.5,0.9c0.6,0.6,0.9,1.6,0.9,2.8v5.6h-1.5v-5.4c0-1-0.2-1.6-0.6-2
	C186.8,31.4,186.2,31.2,185.4,31.2z"/>
</svg>
