<?xml version="1.0" encoding="utf-8"?>
<!-- Generator: Adobe Illustrator 27.3.1, SVG Export Plug-In . SVG Version: 6.00 Build 0)  -->
<svg version="1.1" id="Layer_1" xmlns="http://www.w3.org/2000/svg" xmlns:xlink="http://www.w3.org/1999/xlink" x="0px" y="0px"
	 viewBox="0 0 30 30" style="enable-background:new 0 0 30 30;" xml:space="preserve">
<style type="text/css">
	.st0{fill:#DBD7D2;}
</style>
<g>
	<rect x="0" y="22.5" class="st0" width="7.5" height="7.5"/>
	<polygon class="st0" points="22.3,15 20.7,15 20.7,15 19,15 17.5,15 17.4,15 15.7,15 15.7,15 14.1,15 14.1,15 12.5,15 12.5,15 
		12.5,15 12.5,15 10.8,15 10.8,15 9.2,15 9.2,15 7.5,15 7.5,15 7.5,17.5 7.5,17.5 7.5,20 7.5,22.5 12.5,22.5 17.5,22.5 22.5,22.5 
		22.5,15 	"/>
	<rect x="22.5" y="22.5" class="st0" width="7.5" height="7.5"/>
	<rect x="18.7" y="0.1" class="st0" width="7.5" height="7.5"/>
	<rect x="3.8" y="0.1" class="st0" width="7.5" height="7.5"/>
</g>
</svg>
