<svg width="264" height="68" viewBox="0 0 264 68" fill="none" xmlns="http://www.w3.org/2000/svg">
<path d="M201.856 33.0704L200.764 25.0991H180.364V35.1562H188.651V54.1141H180.364V64.1712H213.816V54.1141H202.718V45.0622C202.718 39.7984 205.377 36.3937 211.709 36.3937C214.99 36.3937 217.103 36.8585 219.914 37.7881V25.0991C218.036 24.4019 216.24 24.094 213.74 24.094C206.862 24.094 203.112 28.7362 201.862 33.0704H201.856ZM167.858 32.6811V32.3732C173.797 30.4385 177.395 25.9532 177.395 18.6791C177.395 9.7782 171.145 3.82297 156.449 3.82297H150.275V0H135.815V3.82297H125.263V13.88H135.815V28.8524C136.331 28.8175 136.865 28.8001 137.411 28.8001C145.469 28.8001 149.894 32.0362 149.894 38.3284C149.894 43.9351 145.839 47.4036 138.702 54.149L134.741 57.8906H142.523V52.7837H150.275V38.5608H156.062C161.848 38.5608 164.583 40.4956 164.583 45.6781C164.583 51.3254 161.303 52.8766 156.144 52.8766H150.357V64.1712H157.705C168.803 64.1712 179.824 60.5342 179.824 46.5263C179.824 37.7068 174.273 34.0697 167.864 32.6753L167.858 32.6811ZM156.214 27.5742H150.275V15.1176H155.827C160.205 15.1176 162.94 16.7444 162.94 21.1541C162.94 25.5639 160.827 27.5742 156.22 27.5742H156.214ZM42.6071 32.6811V32.3732C48.5463 30.4385 52.1439 25.9532 52.1439 18.6791C52.1439 9.7782 45.8937 3.82297 31.1983 3.82297H25.0244V0H10.4933V3.82297H0V13.88H10.552V54.12H0V64.177H10.552V68H25.0126V64.177H32.4366C43.5344 64.177 54.5559 60.54 54.5559 46.5321C54.5559 37.7126 49.0041 34.0755 42.5954 32.6811H42.6071ZM25.0185 15.1176H30.5703C34.9484 15.1176 37.6833 16.7444 37.6833 21.1541C37.6833 25.5639 35.5705 27.5742 30.9635 27.5742H25.0244V15.1176H25.0185ZM30.8814 52.8766H25.0185V38.5608H30.8051C36.5917 38.5608 39.3265 40.4956 39.3265 45.6781C39.3265 51.3254 36.0459 52.8766 30.8872 52.8766H30.8814ZM242.737 24.094C226.868 24.094 220.542 33.3783 220.542 45.2946C220.542 56.2813 226.405 65.1822 241.804 65.1822C257.204 65.1822 264 56.1302 264 44.6787C264 33.2273 257.198 24.094 242.737 24.094ZM242.268 55.433C236.875 55.433 234.997 51.9528 234.997 44.8298C234.997 37.7068 237.262 34.1511 242.344 34.1511C247.427 34.1511 249.534 37.5557 249.534 44.8298C249.534 52.1039 247.186 55.433 242.262 55.433H242.268ZM77.4558 45.0622C77.4558 39.7984 80.1144 36.3937 86.4467 36.3937C89.7274 36.3937 91.8401 36.8585 94.6513 37.7881V25.0991C92.7732 24.4019 90.9774 24.094 88.4773 24.094C81.5991 24.094 77.849 28.7362 76.599 33.0704L75.5074 25.0991H55.1076V35.1562H63.3943V54.1141H55.1076V64.1712H88.5595V54.1141H77.4617V45.0622H77.4558ZM140.398 38.9675C140.398 36.8236 138.972 35.4118 136.76 35.4118C133.948 35.4118 132.475 37.1432 132.475 40.2922V41.2044H124.042C124.2 42.285 124.277 43.4935 124.277 44.8356C124.277 51.9528 121.929 55.4388 117.005 55.4388C111.612 55.4388 109.734 51.9586 109.734 44.8356C109.734 37.7126 111.999 34.1569 117.082 34.1569C120.509 34.1569 122.645 35.8127 123.631 39.2696C124.042 34.1685 127.264 30.5721 132.722 29.3113C129.224 26.0694 124.171 24.1056 117.475 24.1056C101.606 24.1056 95.2733 33.39 95.2733 45.3062C95.2733 56.2929 101.136 65.1938 116.536 65.1938C119.547 65.1938 122.223 64.8394 124.594 64.1887V58.4949L135.463 47.1422C139.007 43.4005 140.392 41.216 140.392 38.9791L140.398 38.9675ZM135.809 68H150.269V64.177H135.809V68Z" fill="#3EFF8B"/>
</svg>
