<?xml version="1.0" encoding="utf-8"?>
<!-- Generator: Adobe Illustrator 27.3.1, SVG Export Plug-In . SVG Version: 6.00 Build 0)  -->
<svg version="1.1" id="Layer_1" xmlns="http://www.w3.org/2000/svg" xmlns:xlink="http://www.w3.org/1999/xlink" x="0px" y="0px"
	 viewBox="0 0 50 50" style="enable-background:new 0 0 50 50;" xml:space="preserve">
<style type="text/css">
	.st0{fill-rule:evenodd;clip-rule:evenodd;fill:#6856E9;}
</style>
<g id="Frame_50">
	<path id="Subtract" class="st0" d="M36.8,42.4l6.4-30.8c0.2-0.8-0.6-1.5-1.4-1.2L6.1,24.2c-0.9,0.3-0.9,1.6,0,1.9l8.7,3.2l3.4,10.8
		c0.2,0.7,1.1,0.9,1.6,0.5l4.8-3.9c0.5-0.4,1.2-0.4,1.8,0l8.7,6.3C35.8,43.4,36.6,43.1,36.8,42.4z M17.6,27.6l17-10.5
		c0.3-0.2,0.6,0.2,0.4,0.5l-14,13c-0.5,0.5-0.8,1.1-0.9,1.7l-0.5,3.5c-0.1,0.5-0.7,0.5-0.9,0.1l-1.8-6.5C16.7,28.8,17,28,17.6,27.6z
		"/>
</g>
</svg>
