<?xml version="1.0" encoding="utf-8"?>
<!-- Generator: Adobe Illustrator 27.3.1, SVG Export Plug-In . SVG Version: 6.00 Build 0)  -->
<svg version="1.1" id="Layer_1" xmlns="http://www.w3.org/2000/svg" xmlns:xlink="http://www.w3.org/1999/xlink" x="0px" y="0px"
	 viewBox="0 0 100 100" style="enable-background:new 0 0 100 100;" xml:space="preserve">
<style type="text/css">
	.st0{fill:#010101;}
</style>
<path class="st0" d="M89.86,66.48c-0.06-1.2-0.23-2.4-0.48-3.57c-0.83-3.8-2.78-6.95-5.72-9.49c-0.06-0.04-0.13-0.09-0.19-0.13
	c-2.6-2-5.46-3.45-8.66-4.22c-0.83-0.2-1.63-0.54-2.44-0.82c0.29-0.36,0.51-0.48,0.75-0.56c2.52-0.78,4.77-2.07,6.75-3.77
	c4.61-3.97,6.34-9.25,6.57-15.11c0.07-1.79-0.14-3.61-0.39-5.4c-0.32-2.28-1.12-4.44-2.33-6.4c-2.6-4.19-6.48-6.73-11.04-8.39
	c-5.19-1.89-10.61-2.39-16.06-2.57c-3.26-0.11-6.53-0.02-9.87-0.02c0-1.91,0-3.73,0-5.55c-6.75,0-13.41,0-20.17,0
	c0,1.87,0,3.68,0,5.55c-5.57,0-11.05,0-16.53,0c0,4.94,0,9.88,0,14.82c3.17-0.02,6.34-0.04,9.52-0.06c1.94-0.01,3.88,0,5.89,0
	c0,19.65,0,39.28,0,59c-1,0-1.99,0-2.98,0c-4.14-0.02-8.28-0.04-12.42-0.06c0,4.74,0,9.48,0,14.22c5.17,0,10.35-0.01,15.52,0.02
	c0.36,0,1.07-0.32,0.94,0.58c0.05,1.67,0.1,3.34,0.15,5.01c6.69,0,13.37,0,20.06,0c0-1.65,0-3.31,0-5.01c1.48,0,2.81,0.01,4.14,0
	c5.33-0.06,10.69,0.35,15.97-0.63c2.75-0.51,5.51-1.12,8.13-2.07c4.12-1.5,7.68-3.93,10.38-7.47c2.85-3.74,4.18-8.05,4.52-12.67
	C89.99,69.95,89.94,68.21,89.86,66.48z M46.8,22.49c3.45,0.11,6.87,0.12,10.27,0.39c1.54,0.12,3.16,0.51,4.55,1.19
	c2.32,1.14,3.35,3.35,3.56,5.82c0.19,2.15,0.15,4.33-0.76,6.39c-1.15,2.59-3.23,4.16-5.95,4.33c-3.84,0.24-7.71,0.06-11.67,0.06
	C46.8,34.74,46.8,28.72,46.8,22.49z M67.03,71.78c-0.95,3.25-3.29,4.95-6.42,5.7c-1.29,0.31-2.65,0.41-3.98,0.43
	c-3.26,0.06-6.53,0.02-9.85,0.02c-0.01-0.21-0.03-0.36-0.03-0.52c0-6.6,0-13.2,0-19.8c0-0.23,0.05-0.46,0.07-0.69
	c2.99,0,5.98,0,8.96,0c1.92,0.32,3.88,0.49,5.74,0.99c3.57,0.96,5.48,3.39,5.91,7.08C67.72,67.29,67.69,69.53,67.03,71.78z"/>
</svg>
